<svg xmlns="http://www.w3.org/2000/svg" viewBox="0 0 64 64" fill="none">
  <rect width="64" height="64" rx="12" fill="#0f172a"/>
  <path d="M12 18.5C12 16.57 13.57 15 15.5 15H29C33.42 15 37 18.58 37 23V48H18.5C14.91 48 12 45.09 12 41.5V18.5Z" fill="#f8fafc"/>
  <path d="M52 18.5C52 16.57 50.43 15 48.5 15H35C30.58 15 27 18.58 27 23V48H45.5C49.09 48 52 45.09 52 41.5V18.5Z" fill="#e2e8f0"/>
  <path d="M32 21V48" stroke="#94a3b8" stroke-width="2"/>
  <path d="M17 24.5H28" stroke="#cbd5e1" stroke-width="1.8" stroke-linecap="round"/>
  <path d="M17 29.5H28" stroke="#cbd5e1" stroke-width="1.8" stroke-linecap="round"/>
  <path d="M36 24.5H47" stroke="#94a3b8" stroke-width="1.8" stroke-linecap="round"/>
  <path d="M36 29.5H47" stroke="#94a3b8" stroke-width="1.8" stroke-linecap="round"/>
</svg>
